<svg xmlns="http://www.w3.org/2000/svg" viewBox="0 0 24 24" fill="#3DDC84">
  <path d="M12 2C6.48 2 2 6.48 2 12s4.48 10 10 10 10-4.48 10-10S17.52 2 12 2z" fill="#3DDC84"/>
  <path d="M12 4c4.41 0 8 3.59 8 8s-3.59 8-8 8-8-3.59-8-8 3.59-8 8-8z" fill="#FFFFFF"/>
  <path d="M12 6c3.31 0 6 2.69 6 6s-2.69 6-6 6-6-2.69-6-6 2.69-6 6-6z" fill="#3DDC84"/>
  <circle cx="9" cy="10" r="1" fill="#FFFFFF"/>
  <circle cx="15" cy="10" r="1" fill="#FFFFFF"/>
  <path d="M9 14c0 1.66 1.34 3 3 3s3-1.34 3-3" stroke="#FFFFFF" stroke-width="1" fill="none"/>
</svg>
