<svg xmlns="http://www.w3.org/2000/svg" viewBox="0 0 24 24" fill="#F05032">
  <path d="M23.546 10.93L13.067.452c-.604-.603-1.582-.603-2.188 0L8.708 2.627l2.76 2.76c.645-.215 1.379-.07 1.889.441.516.515.658 1.258.428 1.9l2.658 2.66c.645-.23 1.387-.87 1.9.428.72.72.72 1.884 0 2.604-.719.719-1.881.719-2.6 0-.539-.541-.67-1.337-.396-1.983l-2.48-2.48v6.529c.176.086.342.203.488.348.713.713.713 1.87 0 2.583-.719.713-1.881.713-2.6 0-.719-.713-.719-1.87 0-2.583.177-.177.383-.312.602-.402V9.293c-.219-.09-.425-.225-.602-.402-.545-.545-.676-1.342-.396-1.983L7.636 4.641.452 11.825c-.603.604-.603 1.582 0 2.187l10.48 10.477c.604.604 1.582.604 2.186 0l10.428-10.43c.603-.603.603-1.582 0-2.187"/>
</svg>
